<svg width="598" height="163" viewBox="0 0 598 163" fill="none" xmlns="http://www.w3.org/2000/svg">
<path d="M18.4922 88.2266L64.0547 105.242V123.102L4.07812 97.1562V84.9219L18.4922 88.2266ZM64.0547 74.375L18.4922 91.6719L4.07812 94.7656V82.4609L64.0547 56.5859V74.375ZM125.789 31.625L87.1172 142.789H72.9844L111.656 31.625H125.789ZM576.281 91.0391L530.016 74.2344V56.5156L591.047 82.4609V94.8359L576.281 91.0391ZM530.016 105.453L576.352 88.1562L591.047 84.8516V97.1562L530.016 123.102V105.453Z" fill="#FF0000"/>
<path d="M202.992 118.812V134H151.523V118.812H202.992ZM157.359 31.625V134H138.023V31.625H157.359ZM211.219 96.7344V95.2578C211.219 89.6797 212.016 84.5469 213.609 79.8594C215.203 75.125 217.523 71.0234 220.57 67.5547C223.617 64.0859 227.344 61.3906 231.75 59.4688C236.156 57.5 241.172 56.5156 246.797 56.5156C252.516 56.5156 257.578 57.5 261.984 59.4688C266.438 61.3906 270.188 64.0859 273.234 67.5547C276.281 71.0234 278.602 75.125 280.195 79.8594C281.789 84.5469 282.586 89.6797 282.586 95.2578V96.7344C282.586 102.266 281.789 107.398 280.195 112.133C278.602 116.82 276.281 120.922 273.234 124.438C270.188 127.906 266.461 130.602 262.055 132.523C257.648 134.445 252.609 135.406 246.938 135.406C241.312 135.406 236.273 134.445 231.82 132.523C227.367 130.602 223.617 127.906 220.57 124.438C217.523 120.922 215.203 116.82 213.609 112.133C212.016 107.398 211.219 102.266 211.219 96.7344ZM229.781 95.2578V96.7344C229.781 100.062 230.109 103.18 230.766 106.086C231.422 108.992 232.43 111.547 233.789 113.75C235.148 115.953 236.906 117.688 239.062 118.953C241.266 120.172 243.891 120.781 246.938 120.781C249.938 120.781 252.516 120.172 254.672 118.953C256.828 117.688 258.586 115.953 259.945 113.75C261.352 111.547 262.383 108.992 263.039 106.086C263.695 103.18 264.023 100.062 264.023 96.7344V95.2578C264.023 91.9766 263.695 88.9062 263.039 86.0469C262.383 83.1406 261.352 80.5859 259.945 78.3828C258.586 76.1328 256.805 74.375 254.602 73.1094C252.445 71.7969 249.844 71.1406 246.797 71.1406C243.797 71.1406 241.219 71.7969 239.062 73.1094C236.906 74.375 235.148 76.1328 233.789 78.3828C232.43 80.5859 231.422 83.1406 230.766 86.0469C230.109 88.9062 229.781 91.9766 229.781 95.2578ZM314.297 74.1641V134H295.734V57.9219H313.172L314.297 74.1641ZM311.344 93.2188H305.859C305.906 87.6875 306.656 82.6719 308.109 78.1719C309.562 73.6719 311.602 69.8047 314.227 66.5703C316.898 63.3359 320.062 60.8516 323.719 59.1172C327.375 57.3828 331.453 56.5156 335.953 56.5156C339.609 56.5156 342.914 57.0312 345.867 58.0625C348.82 59.0938 351.352 60.7344 353.461 62.9844C355.617 65.2344 357.258 68.1875 358.383 71.8438C359.555 75.4531 360.141 79.9062 360.141 85.2031V134H341.438V85.0625C341.438 81.5938 340.922 78.8516 339.891 76.8359C338.906 74.8203 337.453 73.3906 335.531 72.5469C333.656 71.7031 331.336 71.2812 328.57 71.2812C325.711 71.2812 323.203 71.8672 321.047 73.0391C318.938 74.1641 317.156 75.7344 315.703 77.75C314.297 79.7656 313.219 82.0859 312.469 84.7109C311.719 87.3359 311.344 90.1719 311.344 93.2188ZM436.148 119.375V134H378.914V119.375H436.148ZM434.812 69.0312L385.875 134H373.641V122.539L422.297 57.9219H434.812V69.0312ZM427.992 57.9219V72.6172H374.625V57.9219H427.992ZM444.938 96.7344V95.2578C444.938 89.6797 445.734 84.5469 447.328 79.8594C448.922 75.125 451.242 71.0234 454.289 67.5547C457.336 64.0859 461.062 61.3906 465.469 59.4688C469.875 57.5 474.891 56.5156 480.516 56.5156C486.234 56.5156 491.297 57.5 495.703 59.4688C500.156 61.3906 503.906 64.0859 506.953 67.5547C510 71.0234 512.32 75.125 513.914 79.8594C515.508 84.5469 516.305 89.6797 516.305 95.2578V96.7344C516.305 102.266 515.508 107.398 513.914 112.133C512.32 116.82 510 120.922 506.953 124.438C503.906 127.906 500.18 130.602 495.773 132.523C491.367 134.445 486.328 135.406 480.656 135.406C475.031 135.406 469.992 134.445 465.539 132.523C461.086 130.602 457.336 127.906 454.289 124.438C451.242 120.922 448.922 116.82 447.328 112.133C445.734 107.398 444.938 102.266 444.938 96.7344ZM463.5 95.2578V96.7344C463.5 100.062 463.828 103.18 464.484 106.086C465.141 108.992 466.148 111.547 467.508 113.75C468.867 115.953 470.625 117.688 472.781 118.953C474.984 120.172 477.609 120.781 480.656 120.781C483.656 120.781 486.234 120.172 488.391 118.953C490.547 117.688 492.305 115.953 493.664 113.75C495.07 111.547 496.102 108.992 496.758 106.086C497.414 103.18 497.742 100.062 497.742 96.7344V95.2578C497.742 91.9766 497.414 88.9062 496.758 86.0469C496.102 83.1406 495.07 80.5859 493.664 78.3828C492.305 76.1328 490.523 74.375 488.32 73.1094C486.164 71.7969 483.562 71.1406 480.516 71.1406C477.516 71.1406 474.938 71.7969 472.781 73.1094C470.625 74.375 468.867 76.1328 467.508 78.3828C466.148 80.5859 465.141 83.1406 464.484 86.0469C463.828 88.9062 463.5 91.9766 463.5 95.2578Z" fill="white"/>
</svg>
